<mxfile host="65bd71144e">
    <diagram id="8Z9_UsavCUzo-AXr8-DQ" name="Page-1">
        <mxGraphModel dx="398" dy="439" grid="1" gridSize="10" guides="1" tooltips="1" connect="1" arrows="1" fold="1" page="1" pageScale="1" pageWidth="827" pageHeight="1169" math="0" shadow="0">
            <root>
                <mxCell id="0"/>
                <mxCell id="1" parent="0"/>
                <mxCell id="3" style="edgeStyle=none;sketch=1;hachureGap=4;jiggle=2;curveFitting=1;html=1;fontFamily=Architects Daughter;fontSource=https%3A%2F%2Ffonts.googleapis.com%2Fcss%3Ffamily%3DArchitects%2BDaughter;fontSize=16;entryX=0.5;entryY=0;entryDx=0;entryDy=0;strokeColor=#4E8663;exitX=1;exitY=0.5;exitDx=0;exitDy=0;" parent="1" source="2" target="37" edge="1">
                    <mxGeometry relative="1" as="geometry">
                        <mxPoint x="480" y="210" as="targetPoint"/>
                    </mxGeometry>
                </mxCell>
                <mxCell id="2" value="Serviço A" style="rounded=1;whiteSpace=wrap;html=1;sketch=1;hachureGap=4;jiggle=2;curveFitting=1;fontFamily=Architects Daughter;fontSource=https%3A%2F%2Ffonts.googleapis.com%2Fcss%3Ffamily%3DArchitects%2BDaughter;fontSize=20;strokeColor=#4E8663;fillColor=none;" parent="1" vertex="1">
                    <mxGeometry x="40" y="60" width="200" height="120" as="geometry"/>
                </mxCell>
                <mxCell id="7" value="Fila de eventos" style="swimlane;whiteSpace=wrap;html=1;sketch=1;hachureGap=4;jiggle=2;curveFitting=1;fontFamily=Architects Daughter;fontSource=https%3A%2F%2Ffonts.googleapis.com%2Fcss%3Ffamily%3DArchitects%2BDaughter;fontSize=20;strokeColor=#4E8663;fillColor=#4E8663;" parent="1" vertex="1">
                    <mxGeometry x="480" y="40" width="280" height="330" as="geometry"/>
                </mxCell>
                <mxCell id="8" value="Evento 1&lt;br&gt;Para: serviço C&lt;br&gt;Quando: agora" style="rounded=1;whiteSpace=wrap;html=1;sketch=1;hachureGap=4;jiggle=2;curveFitting=1;fontFamily=Architects Daughter;fontSource=https%3A%2F%2Ffonts.googleapis.com%2Fcss%3Ffamily%3DArchitects%2BDaughter;fontSize=20;strokeColor=#DCDCDC;gradientColor=none;fillColor=none;" parent="7" vertex="1">
                    <mxGeometry x="40" y="50" width="170" height="80" as="geometry"/>
                </mxCell>
                <mxCell id="9" value="Evento 2&lt;br&gt;Para: serviço D&lt;br&gt;Quando: após 10m" style="rounded=1;whiteSpace=wrap;html=1;sketch=1;hachureGap=4;jiggle=2;curveFitting=1;fontFamily=Architects Daughter;fontSource=https%3A%2F%2Ffonts.googleapis.com%2Fcss%3Ffamily%3DArchitects%2BDaughter;fontSize=20;strokeColor=#DCDCDC;fillColor=none;" parent="7" vertex="1">
                    <mxGeometry x="40" y="160" width="170" height="80" as="geometry"/>
                </mxCell>
                <mxCell id="10" value="[...]" style="text;html=1;strokeColor=none;fillColor=none;align=center;verticalAlign=middle;whiteSpace=wrap;rounded=0;sketch=1;hachureGap=4;jiggle=2;curveFitting=1;fontFamily=Architects Daughter;fontSource=https%3A%2F%2Ffonts.googleapis.com%2Fcss%3Ffamily%3DArchitects%2BDaughter;fontSize=44;fontColor=#DCDCDC;" parent="7" vertex="1">
                    <mxGeometry x="65" y="270" width="120" height="30" as="geometry"/>
                </mxCell>
                <mxCell id="13" style="edgeStyle=none;sketch=1;hachureGap=4;jiggle=2;curveFitting=1;html=1;entryX=0.5;entryY=1;entryDx=0;entryDy=0;fontFamily=Architects Daughter;fontSource=https%3A%2F%2Ffonts.googleapis.com%2Fcss%3Ffamily%3DArchitects%2BDaughter;fontSize=20;strokeColor=#4E8663;exitX=1;exitY=0.5;exitDx=0;exitDy=0;" parent="1" source="12" target="37" edge="1">
                    <mxGeometry relative="1" as="geometry"/>
                </mxCell>
                <mxCell id="12" value="Serviço B" style="rounded=1;whiteSpace=wrap;html=1;sketch=1;hachureGap=4;jiggle=2;curveFitting=1;fontFamily=Architects Daughter;fontSource=https%3A%2F%2Ffonts.googleapis.com%2Fcss%3Ffamily%3DArchitects%2BDaughter;fontSize=20;strokeColor=#4E8663;fillColor=none;" parent="1" vertex="1">
                    <mxGeometry x="40" y="230" width="200" height="120" as="geometry"/>
                </mxCell>
                <mxCell id="38" style="edgeStyle=none;sketch=1;hachureGap=4;jiggle=2;curveFitting=1;html=1;exitX=0.5;exitY=1;exitDx=0;exitDy=0;entryX=0;entryY=0.75;entryDx=0;entryDy=0;strokeColor=#4E8663;fontFamily=Architects Daughter;fontSource=https%3A%2F%2Ffonts.googleapis.com%2Fcss%3Ffamily%3DArchitects%2BDaughter;fontSize=16;fontColor=#DCDCDC;" parent="1" source="37" target="7" edge="1">
                    <mxGeometry relative="1" as="geometry"/>
                </mxCell>
                <mxCell id="39" style="edgeStyle=none;sketch=1;hachureGap=4;jiggle=2;curveFitting=1;html=1;exitX=0.5;exitY=0;exitDx=0;exitDy=0;entryX=0;entryY=0.25;entryDx=0;entryDy=0;strokeColor=#4E8663;fontFamily=Architects Daughter;fontSource=https%3A%2F%2Ffonts.googleapis.com%2Fcss%3Ffamily%3DArchitects%2BDaughter;fontSize=16;fontColor=#DCDCDC;" parent="1" source="37" target="7" edge="1">
                    <mxGeometry relative="1" as="geometry"/>
                </mxCell>
                <mxCell id="37" value="Formatação da mensagem" style="shape=hexagon;perimeter=hexagonPerimeter2;whiteSpace=wrap;html=1;fixedSize=1;sketch=1;hachureGap=4;jiggle=2;curveFitting=1;strokeColor=#DCDCDC;fontFamily=Architects Daughter;fontSource=https%3A%2F%2Ffonts.googleapis.com%2Fcss%3Ffamily%3DArchitects%2BDaughter;fontSize=20;fontColor=#4E8663;fillColor=#DCDCDC;" parent="1" vertex="1">
                    <mxGeometry x="270" y="140" width="170" height="110" as="geometry"/>
                </mxCell>
                <mxCell id="47" value="Serviço C" style="rounded=1;whiteSpace=wrap;html=1;sketch=1;hachureGap=4;jiggle=2;curveFitting=1;fontFamily=Architects Daughter;fontSource=https%3A%2F%2Ffonts.googleapis.com%2Fcss%3Ffamily%3DArchitects%2BDaughter;fontSize=20;strokeColor=#4E8663;fillColor=none;fontStyle=1" parent="1" vertex="1">
                    <mxGeometry x="827" y="60" width="200" height="120" as="geometry"/>
                </mxCell>
                <mxCell id="50" value="Serviço D" style="rounded=1;whiteSpace=wrap;html=1;sketch=1;hachureGap=4;jiggle=2;curveFitting=1;fontFamily=Architects Daughter;fontSource=https%3A%2F%2Ffonts.googleapis.com%2Fcss%3Ffamily%3DArchitects%2BDaughter;fontSize=20;strokeColor=#4E8663;fillColor=none;fontStyle=1" parent="1" vertex="1">
                    <mxGeometry x="827" y="230" width="200" height="120" as="geometry"/>
                </mxCell>
                <mxCell id="55" style="edgeStyle=none;sketch=1;hachureGap=4;jiggle=2;curveFitting=1;html=1;entryX=0;entryY=0.5;entryDx=0;entryDy=0;fontFamily=Architects Daughter;fontSource=https%3A%2F%2Ffonts.googleapis.com%2Fcss%3Ffamily%3DArchitects%2BDaughter;fontSize=16;strokeColor=#4E8663;" edge="1" parent="1" source="8" target="47">
                    <mxGeometry relative="1" as="geometry"/>
                </mxCell>
            </root>
        </mxGraphModel>
    </diagram>
</mxfile>